<svg version="1.1" id="Layer_1" xmlns="http://www.w3.org/2000/svg" xmlns:xlink="http://www.w3.org/1999/xlink" x="0px" y="0px"
	 width="100%" viewBox="0 0 500 500" enable-background="new 0 0 500 500" xml:space="preserve">
<path fill="#FF7B4B" opacity="1.000000" stroke="none" 
	d="
M213.000000,501.000000 
	C196.979111,501.000000 180.958206,501.000000 164.524963,500.658722 
	C165.420776,498.870880 166.622696,497.306763 168.062408,496.005737 
	C170.145813,494.122894 172.623352,492.641083 174.542358,490.617889 
	C180.664383,484.163452 186.285599,477.204193 192.690002,471.054047 
	C203.299026,460.866241 214.376404,451.166656 225.230026,441.232452 
	C226.451675,440.114258 227.439331,438.742584 228.644089,437.603333 
	C232.449600,434.004822 236.336838,430.492554 240.131775,426.883118 
	C242.164261,424.949982 244.106842,422.918457 246.028458,420.873505 
	C249.164764,417.535950 252.245560,414.146271 255.359268,410.787384 
	C259.570740,406.244354 263.791168,401.709564 268.472382,397.109863 
	C281.343018,397.048492 293.749023,397.048492 306.882751,397.048492 
	C306.882751,388.225647 306.882751,380.110962 307.243164,371.947754 
	C312.069458,367.686218 316.566406,363.505463 320.992340,359.250885 
	C325.217804,355.188995 329.389282,351.070251 333.544342,346.936157 
	C335.403839,345.086060 337.126068,343.098175 338.981842,341.244141 
	C340.953522,339.274292 343.030182,337.409851 345.018738,335.456390 
	C345.820587,334.668732 346.445038,333.697693 347.261383,332.928040 
	C352.956207,327.558807 358.715393,322.257477 364.382599,316.859436 
	C368.264557,313.161835 371.871307,309.161591 375.888855,305.623383 
	C381.365326,300.800354 387.120667,296.294342 392.737915,291.630035 
	C393.106018,291.324402 393.291962,290.808899 393.603760,290.424316 
	C396.651703,286.664642 399.353424,282.537781 402.835785,279.234497 
	C410.343872,272.112549 418.888702,266.248016 425.671265,258.148773 
	C432.938110,249.471176 441.534119,241.900406 449.622559,233.920090 
	C452.952209,230.634964 456.536438,227.608734 459.888733,224.345413 
	C464.823669,219.541458 469.662598,214.638641 474.520935,209.756516 
	C475.214172,209.059921 475.719147,208.172928 476.426056,207.493484 
	C481.246704,202.860184 485.937103,198.071625 491.000183,193.717697 
	C494.023438,191.117920 497.646545,189.215759 501.000000,187.000000 
	C501.000000,198.354233 501.000000,209.708450 500.649017,221.585388 
	C494.316742,227.217407 488.100311,232.079971 482.413879,237.498734 
	C475.362579,244.218124 468.895508,251.547668 461.906799,258.336487 
	C455.146606,264.903351 447.890717,270.959778 441.127747,277.523926 
	C430.080688,288.246185 419.363342,299.308228 408.311371,310.025269 
	C395.498413,322.449921 382.390259,334.570099 369.569183,346.986542 
	C359.812866,356.434998 350.410797,366.249084 340.661591,375.705078 
	C325.695770,390.220825 310.600067,404.603271 295.493256,418.972656 
	C288.450745,425.671417 281.082581,432.034210 274.165436,438.856873 
	C263.843109,449.038361 253.941498,459.647766 243.574738,469.782410 
	C234.580795,478.574982 225.130173,486.899017 216.035004,495.590881 
	C214.605621,496.956818 213.991226,499.175568 213.000000,501.000000 
z"/>
<path fill="#FFC377" opacity="1.000000" stroke="none" 
	d="
M0.999999,207.000000 
	C1.000000,189.645767 1.000000,172.291550 1.340672,154.412964 
	C9.052749,147.140778 16.470150,140.442200 23.773727,133.621735 
	C26.850204,130.748749 29.605991,127.534019 32.655724,124.630257 
	C35.411705,122.006180 38.418179,119.647133 41.224571,117.073494 
	C43.948700,114.575294 46.536488,111.929016 49.230049,109.396591 
	C50.303619,108.387245 51.583717,107.592941 52.627632,106.557426 
	C59.981281,99.263031 67.244911,91.877205 74.644127,84.629654 
	C79.950974,79.431580 85.528656,74.508400 90.795311,69.271309 
	C97.441490,62.662445 103.863716,55.829002 110.440704,49.149696 
	C115.108070,44.409710 120.659767,40.313328 124.399834,34.942909 
	C129.473083,27.658161 138.576035,24.739342 142.703445,16.734373 
	C142.831146,16.486700 143.305771,16.443186 143.543884,16.223457 
	C149.035538,11.155780 154.516800,6.076842 160.000000,1.000000 
	C177.687561,1.000000 195.375122,1.000000 213.475647,1.340356 
	C207.489685,8.307425 201.241760,15.088979 194.649750,21.517694 
	C187.933060,28.068018 180.753174,34.142071 174.002701,40.659363 
	C165.670380,48.703861 157.688675,57.112213 149.334106,65.132767 
	C143.056488,71.159431 136.316574,76.702721 129.990936,82.681778 
	C123.923508,88.416786 118.088341,94.400337 112.242897,100.364624 
	C111.255013,101.372589 110.731178,102.835358 109.528168,104.149765 
	C100.075180,104.220345 91.084206,104.361053 82.100067,104.173965 
	C78.435150,104.097656 77.101715,105.301987 77.169174,109.037590 
	C77.331352,118.019234 77.137978,127.007294 76.742844,136.049072 
	C71.708565,140.460129 66.875549,144.671677 62.365738,149.204758 
	C56.306744,155.294998 50.675350,161.815216 44.541611,167.825516 
	C33.705479,178.443604 22.716558,188.910751 11.597069,199.231506 
	C8.408319,202.191208 4.550850,204.430435 0.999999,207.000000 
z"/>
<path fill="#FF7648" opacity="1.000000" stroke="none" 
	d="
M213.468658,501.000000 
	C213.991226,499.175568 214.605621,496.956818 216.035004,495.590881 
	C225.130173,486.899017 234.580795,478.574982 243.574738,469.782410 
	C253.941498,459.647766 263.843109,449.038361 274.165436,438.856873 
	C281.082581,432.034210 288.450745,425.671417 295.493256,418.972656 
	C310.600067,404.603271 325.695770,390.220825 340.661591,375.705078 
	C350.410797,366.249084 359.812866,356.434998 369.569183,346.986542 
	C382.390259,334.570099 395.498413,322.449921 408.311371,310.025269 
	C419.363342,299.308228 430.080688,288.246185 441.127747,277.523926 
	C447.890717,270.959778 455.146606,264.903351 461.906799,258.336487 
	C468.895508,251.547668 475.362579,244.218124 482.413879,237.498734 
	C488.100311,232.079971 494.316742,227.217407 500.649017,222.054047 
	C501.000000,230.020905 501.000000,238.041809 500.660370,246.586731 
	C496.335907,251.260376 492.479980,255.544037 488.336639,259.528839 
	C481.803741,265.811707 475.110474,271.929626 468.413757,278.039215 
	C466.359985,279.912933 462.889191,281.114471 462.105896,283.341003 
	C459.312622,291.280670 450.844971,293.312317 446.470551,299.491852 
	C444.463287,302.327423 441.825836,304.764160 439.253479,307.143158 
	C432.959686,312.963959 426.397705,318.499634 420.201996,324.420380 
	C412.356506,331.917694 404.871338,339.791687 397.036407,347.300415 
	C389.761200,354.272705 382.014954,360.761627 374.873505,367.863007 
	C367.851135,374.845978 361.608093,382.617798 354.525452,389.533844 
	C341.562836,402.191589 326.800354,412.904053 315.190063,427.080170 
	C308.811462,434.868408 298.680450,439.211853 294.190491,448.962189 
	C293.965363,449.451080 293.058716,449.592712 292.533539,449.982483 
	C289.802368,452.009521 286.954803,453.909119 284.412628,456.153168 
	C281.819092,458.442444 279.608154,461.158966 277.097015,463.549042 
	C271.010620,469.341919 264.777954,474.982758 258.757843,480.842651 
	C257.010315,482.543610 256.029480,485.039307 254.262802,486.711914 
	C250.967987,489.831299 247.277344,492.528625 243.905380,495.572144 
	C242.104431,497.197723 240.624710,499.179169 239.000000,501.000000 
	C230.645767,501.000000 222.291534,501.000000 213.468658,501.000000 
z"/>
<path fill="#FFCC7C" opacity="1.000000" stroke="none" 
	d="
M159.531342,1.000000 
	C154.516800,6.076842 149.035538,11.155780 143.543884,16.223457 
	C143.305771,16.443186 142.831146,16.486700 142.703445,16.734373 
	C138.576035,24.739342 129.473083,27.658161 124.399834,34.942909 
	C120.659767,40.313328 115.108070,44.409710 110.440704,49.149696 
	C103.863716,55.829002 97.441490,62.662445 90.795311,69.271309 
	C85.528656,74.508400 79.950974,79.431580 74.644127,84.629654 
	C67.244911,91.877205 59.981281,99.263031 52.627632,106.557426 
	C51.583717,107.592941 50.303619,108.387245 49.230049,109.396591 
	C46.536488,111.929016 43.948700,114.575294 41.224571,117.073494 
	C38.418179,119.647133 35.411705,122.006180 32.655724,124.630257 
	C29.605991,127.534019 26.850204,130.748749 23.773727,133.621735 
	C16.470150,140.442200 9.052749,147.140778 1.340672,153.944305 
	C1.000000,135.312439 1.000000,116.624878 1.354487,97.413475 
	C4.038323,95.630676 6.730293,94.770164 8.631054,93.040276 
	C15.106912,87.146614 21.359409,81.002777 27.593531,74.849434 
	C35.593170,66.953445 43.407310,58.868244 51.463940,51.031693 
	C57.160458,45.490788 63.215195,40.319374 68.949158,34.815430 
	C75.359474,28.662268 81.720444,22.446077 87.852348,16.018311 
	C92.440720,11.208555 96.631943,6.019928 101.000000,0.999999 
	C120.354225,1.000000 139.708450,1.000000 159.531342,1.000000 
z"/>
<path fill="#FFAA67" opacity="1.000000" stroke="none" 
	d="
M0.999998,362.000000 
	C1.000000,350.312439 1.000000,338.624878 1.364881,326.455688 
	C4.552714,324.043671 7.616429,322.383240 10.147776,320.125824 
	C15.194744,315.625031 19.946007,310.792938 24.825626,306.104156 
	C30.193876,300.945831 35.651943,295.877594 40.916176,290.615356 
	C45.477177,286.056061 49.608112,281.051178 54.317505,276.659729 
	C59.914581,271.440521 66.244751,266.989624 71.690590,261.630005 
	C81.994461,251.489197 91.702194,240.742371 102.013649,230.609680 
	C112.887581,219.924255 124.268715,209.756805 135.249130,199.177155 
	C141.273315,193.372849 146.782104,187.034775 152.784546,181.206436 
	C161.225098,173.010681 169.880234,165.034515 178.509552,157.035599 
	C180.441132,155.245117 182.912018,153.992065 184.668015,152.066147 
	C187.988831,148.424011 192.938904,145.805939 193.460754,139.838989 
	C205.282654,139.816666 216.639481,139.862122 227.944519,140.257919 
	C225.481613,143.931808 223.422836,147.597458 220.591797,150.513290 
	C212.785889,158.553040 204.650970,166.273041 196.658478,174.132034 
	C193.244095,177.489395 190.019592,181.059830 186.423828,184.207962 
	C181.497925,188.520615 175.754196,192.018417 171.352585,196.781738 
	C165.311951,203.318710 157.564789,208.326691 153.273529,216.463577 
	C153.046753,216.893616 152.680878,217.273056 152.314148,217.603165 
	C146.796967,222.569809 141.208801,227.459305 135.756714,232.496140 
	C126.836876,240.736603 117.884605,248.947998 109.166550,257.399139 
	C99.718674,266.557770 90.802048,276.279480 81.131470,285.188690 
	C73.067436,292.617889 65.081772,300.224335 57.429703,307.966827 
	C49.720417,315.767181 41.895790,323.389404 33.776920,330.744690 
	C30.485331,333.726685 27.227268,336.753815 24.088894,339.895203 
	C16.975521,347.015350 9.956762,354.230011 2.854661,361.361542 
	C2.440423,361.777496 1.627422,361.796326 0.999998,362.000000 
z"/>
<path fill="#FFA665" opacity="1.000000" stroke="none" 
	d="
M0.999998,362.468658 
	C1.627422,361.796326 2.440423,361.777496 2.854661,361.361542 
	C9.956762,354.230011 16.975521,347.015350 24.088894,339.895203 
	C27.227268,336.753815 30.485331,333.726685 33.776920,330.744690 
	C41.895790,323.389404 49.720417,315.767181 57.429703,307.966827 
	C65.081772,300.224335 73.067436,292.617889 81.131470,285.188690 
	C90.802048,276.279480 99.718674,266.557770 109.166550,257.399139 
	C117.884605,248.947998 126.836876,240.736603 135.756714,232.496140 
	C141.208801,227.459305 146.796967,222.569809 152.314148,217.603165 
	C152.680878,217.273056 153.046753,216.893616 153.273529,216.463577 
	C157.564789,208.326691 165.311951,203.318710 171.352585,196.781738 
	C175.754196,192.018417 181.497925,188.520615 186.423828,184.207962 
	C190.019592,181.059830 193.244095,177.489395 196.658478,174.132034 
	C204.650970,166.273041 212.785889,158.553040 220.591797,150.513290 
	C223.422836,147.597458 225.481613,143.931808 228.404175,140.187744 
	C232.901276,139.767227 236.886963,139.767227 241.147842,139.767227 
	C240.750488,141.197464 240.741669,141.562759 240.566727,141.810898 
	C232.164825,153.729874 223.726151,165.622971 215.340073,177.553040 
	C206.577850,190.018234 197.864655,202.517929 188.758209,215.013016 
	C181.524307,220.794388 174.425797,226.311630 167.875488,232.417023 
	C162.702271,237.238861 158.428864,243.016342 153.348419,247.949844 
	C146.763657,254.344116 139.693481,260.235626 132.996155,266.518250 
	C130.016388,269.313477 127.637627,272.752716 124.638435,275.523315 
	C115.506447,283.959381 106.149551,292.151947 97.013344,300.583557 
	C95.009857,302.432495 93.758118,305.083527 91.801743,306.999146 
	C89.212204,309.534668 86.066612,311.508057 83.515839,314.076416 
	C74.325813,323.329773 65.429825,332.878326 56.140579,342.028900 
	C49.196140,348.869659 41.817692,355.269867 34.631443,361.865082 
	C32.441761,363.874695 30.159489,365.792542 28.074347,367.905151 
	C22.605869,373.445618 17.425291,379.288788 11.725492,384.575195 
	C8.569625,387.502228 4.601814,389.553802 0.999998,392.000000 
	C1.000000,382.312439 1.000000,372.624878 0.999998,362.468658 
z"/>
<path fill="#FF7045" opacity="1.000000" stroke="none" 
	d="
M501.000000,269.000000 
	C501.000000,279.354218 501.000000,289.708466 500.648895,300.585205 
	C495.589996,304.658203 490.513031,307.818848 486.258240,311.847748 
	C479.331635,318.406525 473.124878,325.720306 466.284302,332.376251 
	C455.724731,342.650848 444.789490,352.538544 434.191193,362.774261 
	C420.837585,375.670898 407.648071,388.737793 394.425934,401.769989 
	C392.344299,403.821686 390.592407,406.214508 388.464142,408.210938 
	C383.841644,412.547028 378.906525,416.559357 374.407440,421.015198 
	C368.280548,427.083221 362.655762,433.666077 356.425781,439.620239 
	C348.091949,447.585175 339.271637,455.039093 330.869324,462.934967 
	C322.439331,470.856873 314.091034,478.882782 306.053680,487.198242 
	C301.975098,491.417999 298.660156,496.375854 295.000000,501.000000 
	C284.312439,501.000000 273.624878,501.000000 262.528625,500.650879 
	C266.722839,495.697906 271.321289,491.089569 275.929657,486.491180 
	C284.080200,478.358246 292.124878,470.114990 300.423920,462.136414 
	C307.933258,454.917145 315.903381,448.173645 323.342072,440.885345 
	C332.038818,432.364410 340.291382,423.391846 348.905151,414.783844 
	C355.160645,408.532562 361.748810,402.615570 368.080383,396.438568 
	C374.129547,390.536987 379.919403,384.366547 386.037659,378.539429 
	C395.309357,369.708893 404.820953,361.130737 414.129333,352.338104 
	C422.886200,344.066376 431.488373,335.631042 440.210663,327.322388 
	C442.610474,325.036407 445.320740,323.071594 447.675903,320.744232 
	C456.732300,311.794769 465.742920,302.797913 474.686737,293.735992 
	C478.827759,289.540253 482.576782,284.942139 486.866302,280.912598 
	C491.350525,276.700104 496.270508,272.951416 501.000000,269.000000 
z"/>
<path fill="#FF8450" opacity="1.000000" stroke="none" 
	d="
M268.007751,397.171265 
	C263.791168,401.709564 259.570740,406.244354 255.359268,410.787384 
	C252.245560,414.146271 249.164764,417.535950 246.028458,420.873505 
	C244.106842,422.918457 242.164261,424.949982 240.131775,426.883118 
	C236.336838,430.492554 232.449600,434.004822 228.644089,437.603333 
	C227.439331,438.742584 226.451675,440.114258 225.230026,441.232452 
	C214.376404,451.166656 203.299026,460.866241 192.690002,471.054047 
	C186.285599,477.204193 180.664383,484.163452 174.542358,490.617889 
	C172.623352,492.641083 170.145813,494.122894 168.062408,496.005737 
	C166.622696,497.306763 165.420776,498.870880 164.056305,500.658722 
	C144.979111,501.000000 125.958214,501.000000 106.521935,500.650909 
	C106.910934,498.867157 107.441917,497.156372 108.565369,496.043945 
	C114.545540,490.122864 120.666260,484.343445 126.753418,478.530792 
	C133.358765,472.223358 140.094635,466.047455 146.557449,459.597565 
	C151.292358,454.872162 155.435181,449.541595 160.275177,444.936096 
	C168.060043,437.528381 176.244049,430.541962 184.182892,423.293762 
	C192.716415,415.502655 201.177002,407.631226 209.616409,399.738220 
	C210.290115,399.108185 210.551910,398.037689 211.469849,397.109955 
	C230.625656,397.089081 249.316696,397.130157 268.007751,397.171265 
z"/>
<path fill="#FFA162" opacity="1.000000" stroke="none" 
	d="
M391.000000,1.000000 
	C408.020905,1.000000 425.041779,1.000000 442.205780,1.230375 
	C442.580261,1.935767 442.811646,2.410784 443.022156,3.256012 
	C441.511047,5.739303 440.297028,8.132404 438.485260,9.919538 
	C427.552582,20.703581 416.509552,31.376408 405.449768,42.030716 
	C398.347870,48.872246 391.158173,55.622658 384.000214,62.405880 
	C374.202515,71.690605 364.252258,80.820885 354.662170,90.315117 
	C350.400391,94.534302 346.859100,99.481255 342.528595,104.181633 
	C324.708832,104.208237 307.351257,104.151062 290.045227,103.735504 
	C291.292236,101.646538 292.359802,99.808739 293.705322,98.203964 
	C299.467010,91.332039 308.459473,87.448814 311.963196,78.438141 
	C312.257721,77.680725 313.506134,77.314766 314.272614,76.717201 
	C323.553802,69.481636 332.679474,62.095917 340.749023,53.450264 
	C348.416321,45.235584 356.308929,37.223717 364.286926,29.308590 
	C372.438995,21.220745 380.862030,13.406272 389.036041,5.339957 
	C390.090973,4.298919 390.364502,2.466067 391.000000,1.000000 
z"/>
<path fill="#FFA967" opacity="1.000000" stroke="none" 
	d="
M390.531342,1.000000 
	C390.364502,2.466067 390.090973,4.298919 389.036041,5.339957 
	C380.862030,13.406272 372.438995,21.220745 364.286926,29.308590 
	C356.308929,37.223717 348.416321,45.235584 340.749023,53.450264 
	C332.679474,62.095917 323.553802,69.481636 314.272614,76.717201 
	C313.506134,77.314766 312.257721,77.680725 311.963196,78.438141 
	C308.459473,87.448814 299.467010,91.332039 293.705322,98.203964 
	C292.359802,99.808739 291.292236,101.646538 289.582275,103.813515 
	C271.709808,104.199631 254.351837,104.149353 237.006500,103.730232 
	C237.681763,102.074066 238.080307,100.527466 239.049042,99.540642 
	C246.424866,92.027222 253.853745,84.563507 261.380920,77.201721 
	C269.018616,69.731865 276.752472,62.359203 284.508148,55.011459 
	C293.752716,46.253155 303.283691,37.784386 312.270050,28.770895 
	C318.065887,22.957531 323.174988,16.611822 330.131958,11.863239 
	C333.607178,9.491200 335.429871,4.698059 338.000000,1.000001 
	C355.354218,1.000000 372.708466,1.000000 390.531342,1.000000 
z"/>
<path fill="#FF7346" opacity="1.000000" stroke="none" 
	d="
M501.000000,268.531433 
	C496.270508,272.951416 491.350525,276.700104 486.866302,280.912598 
	C482.576782,284.942139 478.827759,289.540253 474.686737,293.735992 
	C465.742920,302.797913 456.732300,311.794769 447.675903,320.744232 
	C445.320740,323.071594 442.610474,325.036407 440.210663,327.322388 
	C431.488373,335.631042 422.886200,344.066376 414.129333,352.338104 
	C404.820953,361.130737 395.309357,369.708893 386.037659,378.539429 
	C379.919403,384.366547 374.129547,390.536987 368.080383,396.438568 
	C361.748810,402.615570 355.160645,408.532562 348.905151,414.783844 
	C340.291382,423.391846 332.038818,432.364410 323.342072,440.885345 
	C315.903381,448.173645 307.933258,454.917145 300.423920,462.136414 
	C292.124878,470.114990 284.080200,478.358246 275.929657,486.491180 
	C271.321289,491.089569 266.722839,495.697906 262.059967,500.650879 
	C254.645752,501.000000 247.291504,501.000000 239.468628,501.000000 
	C240.624710,499.179169 242.104431,497.197723 243.905380,495.572144 
	C247.277344,492.528625 250.967987,489.831299 254.262802,486.711914 
	C256.029480,485.039307 257.010315,482.543610 258.757843,480.842651 
	C264.777954,474.982758 271.010620,469.341919 277.097015,463.549042 
	C279.608154,461.158966 281.819092,458.442444 284.412628,456.153168 
	C286.954803,453.909119 289.802368,452.009521 292.533539,449.982483 
	C293.058716,449.592712 293.965363,449.451080 294.190491,448.962189 
	C298.680450,439.211853 308.811462,434.868408 315.190063,427.080170 
	C326.800354,412.904053 341.562836,402.191589 354.525452,389.533844 
	C361.608093,382.617798 367.851135,374.845978 374.873505,367.863007 
	C382.014954,360.761627 389.761200,354.272705 397.036407,347.300415 
	C404.871338,339.791687 412.356506,331.917694 420.201996,324.420380 
	C426.397705,318.499634 432.959686,312.963959 439.253479,307.143158 
	C441.825836,304.764160 444.463287,302.327423 446.470551,299.491852 
	C450.844971,293.312317 459.312622,291.280670 462.105896,283.341003 
	C462.889191,281.114471 466.359985,279.912933 468.413757,278.039215 
	C475.110474,271.929626 481.803741,265.811707 488.336639,259.528839 
	C492.479980,255.544037 496.335907,251.260376 500.660370,247.055374 
	C501.000000,254.020950 501.000000,261.041901 501.000000,268.531433 
z"/>
<path fill="#FFA162" opacity="1.000000" stroke="none" 
	d="
M0.999998,392.468658 
	C4.601814,389.553802 8.569625,387.502228 11.725492,384.575195 
	C17.425291,379.288788 22.605869,373.445618 28.074347,367.905151 
	C30.159489,365.792542 32.441761,363.874695 34.631443,361.865082 
	C41.817692,355.269867 49.196140,348.869659 56.140579,342.028900 
	C65.429825,332.878326 74.325813,323.329773 83.515839,314.076416 
	C86.066612,311.508057 89.212204,309.534668 91.801743,306.999146 
	C93.758118,305.083527 95.009857,302.432495 97.013344,300.583557 
	C106.149551,292.151947 115.506447,283.959381 124.638435,275.523315 
	C127.637627,272.752716 130.016388,269.313477 132.996155,266.518250 
	C139.693481,260.235626 146.763657,254.344116 153.348419,247.949844 
	C158.428864,243.016342 162.702271,237.238861 167.875488,232.417023 
	C174.425797,226.311630 181.524307,220.794388 188.643326,215.340027 
	C176.131226,233.814804 163.394806,251.996109 150.582977,270.124115 
	C140.144196,284.894348 129.615250,299.600861 118.912102,314.069092 
	C117.049255,314.451263 114.988770,314.676727 113.817497,315.816193 
	C104.913361,324.478546 96.247879,333.385651 87.381012,342.087036 
	C77.951614,351.340454 68.396072,360.465576 58.870480,369.620575 
	C51.583984,376.623566 44.266384,383.594299 36.947350,390.563354 
	C31.824013,395.441620 26.582048,400.199341 21.563459,405.182495 
	C16.539316,410.171234 11.848138,415.499420 6.743498,420.400177 
	C5.314338,421.772308 2.940499,422.160461 0.999997,423.000000 
	C1.000000,412.979095 1.000000,402.958221 0.999998,392.468658 
z"/>
<path fill="#FFBB72" opacity="1.000000" stroke="none" 
	d="
M109.992943,104.087997 
	C110.731178,102.835358 111.255013,101.372589 112.242897,100.364624 
	C118.088341,94.400337 123.923508,88.416786 129.990936,82.681778 
	C136.316574,76.702721 143.056488,71.159431 149.334106,65.132767 
	C157.688675,57.112213 165.670380,48.703861 174.002701,40.659363 
	C180.753174,34.142071 187.933060,28.068018 194.649750,21.517694 
	C201.241760,15.088979 207.489685,8.307425 213.944305,1.340356 
	C229.687561,1.000000 245.375122,1.000000 261.473694,1.342468 
	C259.520172,4.393769 257.307404,7.255633 254.761368,9.781581 
	C248.184662,16.306387 241.503387,22.727734 234.783707,29.105942 
	C228.041550,35.505489 221.177872,41.776840 214.413254,48.152969 
	C208.399628,53.821262 202.389191,59.495323 196.485031,65.276810 
	C188.893707,72.710442 181.314606,80.161308 173.912521,87.781830 
	C168.780685,93.065102 163.956543,98.647224 158.530136,104.159348 
	C142.041214,104.177910 126.017082,104.132957 109.992943,104.087997 
z"/>
<path fill="#FF673F" opacity="1.000000" stroke="none" 
	d="
M501.000000,343.000000 
	C501.000000,353.020905 501.000000,363.041779 500.635437,373.543915 
	C497.620636,376.147980 494.814331,378.104889 492.347992,380.423370 
	C483.310333,388.919342 474.299072,397.447205 465.444794,406.133209 
	C457.679077,413.751404 450.249664,421.713013 442.461945,429.307831 
	C435.903107,435.704224 427.107819,439.806732 422.820099,448.548096 
	C422.554596,449.089325 421.799316,449.376404 421.311096,449.824432 
	C415.123596,455.502625 408.882416,461.124207 402.774780,466.887207 
	C392.609375,476.478943 382.478760,486.109314 372.480286,495.873657 
	C371.202942,497.121094 370.805206,499.269165 370.000000,501.000000 
	C359.312439,501.000000 348.624878,501.000000 337.548920,500.668701 
	C339.147247,497.747742 340.844910,494.856415 343.174377,492.624481 
	C350.444916,485.658417 358.126953,479.118744 365.334106,472.090363 
	C379.026978,458.736938 392.464996,445.122650 406.078583,431.687347 
	C415.212341,422.673218 424.439575,413.753174 433.674591,404.842468 
	C441.153381,397.626251 448.796692,390.578735 456.204926,383.291656 
	C467.230377,372.446503 477.951965,361.286804 489.154816,350.631042 
	C492.498047,347.451111 497.018768,345.509186 501.000000,343.000000 
z"/>
<path fill="#FF824F" opacity="1.000000" stroke="none" 
	d="
M501.000000,141.000000 
	C501.000000,149.354233 501.000000,157.708466 500.616425,166.533752 
	C497.888184,168.115173 495.139679,168.767975 493.270752,170.417374 
	C486.257080,176.607239 480.504089,183.969391 473.068024,189.950180 
	C462.727753,198.266876 453.937622,208.516693 444.531494,217.986252 
	C440.648376,221.895554 437.122162,226.191925 433.004883,229.826599 
	C429.152161,233.227753 424.033630,235.375427 420.718994,239.165253 
	C415.155975,245.525879 409.567108,251.574142 403.005829,257.073029 
	C393.849304,264.746918 386.158264,274.158203 377.731567,282.719116 
	C373.818176,286.694824 369.684357,290.456879 365.587982,294.248291 
	C358.515350,300.794403 351.235474,307.125397 344.341095,313.852600 
	C338.408081,319.641693 333.249115,326.257660 327.085510,331.766937 
	C321.434296,336.818176 315.897797,341.777863 311.718567,348.190796 
	C310.810547,349.584045 308.534485,350.085724 306.792908,350.537445 
	C306.761261,342.718140 306.825195,335.359467 307.227783,327.929321 
	C309.619263,325.500641 311.522766,322.990540 313.751526,320.813385 
	C322.250366,312.511322 330.864075,304.326935 339.416077,296.079132 
	C349.515198,286.339203 359.606567,276.591187 369.679901,266.824646 
	C381.383240,255.477814 393.034058,244.076675 404.765930,232.759567 
	C410.575623,227.155334 416.553864,221.726059 422.381653,216.140244 
	C425.447845,213.201355 428.299072,210.039078 431.344543,207.077545 
	C437.372925,201.215332 443.491760,195.445877 449.493408,189.556808 
	C449.977539,189.081757 449.848602,187.981903 450.336731,187.105103 
	C451.409088,186.357346 452.149200,185.676880 453.240723,184.945740 
	C456.705109,181.833023 459.761658,178.710938 462.942474,175.721054 
	C470.237030,168.864319 477.549408,162.025223 484.937286,155.269440 
	C490.221985,150.436935 495.640930,145.751205 501.000000,141.000000 
z"/>
<path fill="#FFB06B" opacity="1.000000" stroke="none" 
	d="
M192.995682,139.906769 
	C192.938904,145.805939 187.988831,148.424011 184.668015,152.066147 
	C182.912018,153.992065 180.441132,155.245117 178.509552,157.035599 
	C169.880234,165.034515 161.225098,173.010681 152.784546,181.206436 
	C146.782104,187.034775 141.273315,193.372849 135.249130,199.177155 
	C124.268715,209.756805 112.887581,219.924255 102.013649,230.609680 
	C91.702194,240.742371 81.994461,251.489197 71.690590,261.630005 
	C66.244751,266.989624 59.914581,271.440521 54.317505,276.659729 
	C49.608112,281.051178 45.477177,286.056061 40.916176,290.615356 
	C35.651943,295.877594 30.193876,300.945831 24.825626,306.104156 
	C19.946007,310.792938 15.194744,315.625031 10.147776,320.125824 
	C7.616429,322.383240 4.552714,324.043671 1.364881,325.987061 
	C1.000000,318.645752 1.000000,311.291504 1.341527,303.412628 
	C2.268734,302.586884 2.947636,302.391296 3.425961,301.968689 
	C9.517975,296.586182 15.594825,291.186279 21.646769,285.758728 
	C25.434690,282.361603 29.351814,279.082703 32.886875,275.436523 
	C36.659229,271.545624 39.797607,267.026703 43.664959,263.244324 
	C49.936363,257.110748 56.598152,251.377625 63.054657,245.431503 
	C68.712425,240.220978 74.396835,235.034393 79.900497,229.664032 
	C82.083183,227.534210 83.568047,224.675385 85.799774,222.612823 
	C89.384521,219.299805 93.539848,216.596161 97.061333,213.224777 
	C101.269531,209.195969 104.981918,204.654907 109.057701,200.480850 
	C115.164215,194.227112 121.303627,187.998413 127.631340,181.971436 
	C129.977371,179.736923 133.124268,178.345413 135.481857,176.120193 
	C137.530945,174.186157 138.721542,171.351501 140.743973,169.378677 
	C148.222092,162.084000 155.991776,155.086777 163.419678,147.742920 
	C165.665512,145.522491 167.159515,142.541656 169.462982,139.843079 
	C177.617279,139.820282 185.306473,139.863525 192.995682,139.906769 
z"/>
<path fill="#FF6B41" opacity="1.000000" stroke="none" 
	d="
M501.000000,342.531342 
	C497.018768,345.509186 492.498047,347.451111 489.154816,350.631042 
	C477.951965,361.286804 467.230377,372.446503 456.204926,383.291656 
	C448.796692,390.578735 441.153381,397.626251 433.674591,404.842468 
	C424.439575,413.753174 415.212341,422.673218 406.078583,431.687347 
	C392.464996,445.122650 379.026978,458.736938 365.334106,472.090363 
	C358.126953,479.118744 350.444916,485.658417 343.174377,492.624481 
	C340.844910,494.856415 339.147247,497.747742 337.080261,500.668701 
	C328.645782,501.000000 320.291534,501.000000 311.526093,500.655273 
	C312.533691,498.503082 313.727875,496.445465 315.411835,494.933319 
	C321.420044,489.537964 327.742950,484.487549 333.655640,478.993347 
	C337.798370,475.143829 341.300812,470.610352 345.392456,466.699524 
	C349.848297,462.440521 354.640991,458.532379 359.316437,454.505676 
	C360.655334,453.352509 362.283295,452.488678 363.459045,451.200439 
	C368.283813,445.913910 372.919739,440.454712 377.755310,435.178375 
	C380.939453,431.703979 384.388275,428.473633 387.638397,425.057739 
	C389.957520,422.620300 391.940552,419.829895 394.431366,417.595917 
	C399.497772,413.051910 404.893555,408.876617 409.994507,404.369354 
	C417.570404,397.675262 423.150085,388.728058 432.756256,384.299377 
	C433.541687,383.937256 434.016815,382.800934 434.526642,381.958099 
	C438.714111,375.035736 444.404053,369.513123 450.536896,364.337402 
	C455.886230,359.822845 461.137787,355.175385 466.201904,350.344849 
	C470.991211,345.776459 475.478271,340.891388 480.102234,336.149475 
	C483.837006,332.319397 487.486420,328.399994 491.344421,324.698090 
	C494.467224,321.701660 494.580231,315.323578 501.000000,316.000000 
	C501.000000,324.687561 501.000000,333.375122 501.000000,342.531342 
z"/>
<path fill="#FF7F4D" opacity="1.000000" stroke="none" 
	d="
M306.888489,350.998047 
	C308.534485,350.085724 310.810547,349.584045 311.718567,348.190796 
	C315.897797,341.777863 321.434296,336.818176 327.085510,331.766937 
	C333.249115,326.257660 338.408081,319.641693 344.341095,313.852600 
	C351.235474,307.125397 358.515350,300.794403 365.587982,294.248291 
	C369.684357,290.456879 373.818176,286.694824 377.731567,282.719116 
	C386.158264,274.158203 393.849304,264.746918 403.005829,257.073029 
	C409.567108,251.574142 415.155975,245.525879 420.718994,239.165253 
	C424.033630,235.375427 429.152161,233.227753 433.004883,229.826599 
	C437.122162,226.191925 440.648376,221.895554 444.531494,217.986252 
	C453.937622,208.516693 462.727753,198.266876 473.068024,189.950180 
	C480.504089,183.969391 486.257080,176.607239 493.270752,170.417374 
	C495.139679,168.767975 497.888184,168.115173 500.616425,167.002411 
	C501.000000,173.354401 501.000000,179.708786 501.000000,186.531601 
	C497.646545,189.215759 494.023438,191.117920 491.000183,193.717697 
	C485.937103,198.071625 481.246704,202.860184 476.426056,207.493484 
	C475.719147,208.172928 475.214172,209.059921 474.520935,209.756516 
	C469.662598,214.638641 464.823669,219.541458 459.888733,224.345413 
	C456.536438,227.608734 452.952209,230.634964 449.622559,233.920090 
	C441.534119,241.900406 432.938110,249.471176 425.671265,258.148773 
	C418.888702,266.248016 410.343872,272.112549 402.835785,279.234497 
	C399.353424,282.537781 396.651703,286.664642 393.603760,290.424316 
	C393.291962,290.808899 393.106018,291.324402 392.737915,291.630035 
	C387.120667,296.294342 381.365326,300.800354 375.888855,305.623383 
	C371.871307,309.161591 368.264557,313.161835 364.382599,316.859436 
	C358.715393,322.257477 352.956207,327.558807 347.261383,332.928040 
	C346.445038,333.697693 345.820587,334.668732 345.018738,335.456390 
	C343.030182,337.409851 340.953522,339.274292 338.981842,341.244141 
	C337.126068,343.098175 335.403839,345.086060 333.544342,346.936157 
	C329.389282,351.070251 325.217804,355.188995 320.992340,359.250885 
	C316.566406,363.505463 312.069458,367.686218 307.144745,371.487854 
	C306.753448,364.383667 306.820953,357.690857 306.888489,350.998047 
z"/>
<path fill="#FFB56E" opacity="1.000000" stroke="none" 
	d="
M1.000000,286.000000 
	C1.000000,275.979095 1.000000,265.958221 1.350856,255.414062 
	C7.391227,250.170425 13.304052,245.689850 18.705215,240.659836 
	C23.747469,235.964081 28.043287,230.472046 33.031670,225.711990 
	C40.576431,218.512543 48.576675,211.790665 56.127842,204.597595 
	C65.456909,195.710922 74.599075,186.623337 83.649727,177.452530 
	C85.785095,175.288803 87.231590,172.445251 89.460907,169.853973 
	C96.082062,169.770660 102.240227,169.625992 108.391304,169.774857 
	C111.605835,169.852646 112.847084,168.718842 112.775909,165.446930 
	C112.620392,158.296875 112.815781,151.139786 112.719101,143.987579 
	C112.681343,141.194366 113.349098,139.667389 116.574944,139.711349 
	C128.714432,139.876770 140.856430,139.858002 152.946899,140.254639 
	C147.695190,146.105103 142.683563,151.805176 137.244492,157.063080 
	C130.595428,163.490692 123.446671,169.400284 116.772057,175.802902 
	C108.901138,183.353088 101.368484,191.254547 93.576447,198.888657 
	C83.539368,208.722290 73.412659,218.464890 63.281399,228.201782 
	C57.056103,234.184753 50.672890,240.005020 44.508999,246.049667 
	C40.726871,249.758667 37.356022,253.887466 33.568375,257.590332 
	C27.071442,263.941803 20.528749,270.260437 13.738691,276.292786 
	C9.758922,279.828461 5.263478,282.783691 1.000000,286.000000 
z"/>
<path fill="#FF633C" opacity="1.000000" stroke="none" 
	d="
M370.468628,501.000000 
	C370.805206,499.269165 371.202942,497.121094 372.480286,495.873657 
	C382.478760,486.109314 392.609375,476.478943 402.774780,466.887207 
	C408.882416,461.124207 415.123596,455.502625 421.311096,449.824432 
	C421.799316,449.376404 422.554596,449.089325 422.820099,448.548096 
	C427.107819,439.806732 435.903107,435.704224 442.461945,429.307831 
	C450.249664,421.713013 457.679077,413.751404 465.444794,406.133209 
	C474.299072,397.447205 483.310333,388.919342 492.347992,380.423370 
	C494.814331,378.104889 497.620636,376.147980 500.635437,374.012573 
	C501.000000,385.020905 501.000000,396.041779 500.650879,407.585327 
	C498.898987,409.198029 497.341980,410.139252 496.121216,411.404846 
	C491.747559,415.938873 487.688477,420.792419 483.144104,425.142426 
	C473.017548,434.835663 462.629608,444.255157 452.426453,453.869263 
	C445.424713,460.466766 438.577881,467.228455 431.609711,473.862030 
	C429.811432,475.573914 427.692902,476.954926 425.935059,478.702759 
	C420.087982,484.516479 414.278259,490.371124 408.599548,496.348145 
	C407.414154,497.595795 406.850281,499.433960 406.000000,501.000000 
	C394.312439,501.000000 382.624878,501.000000 370.468628,501.000000 
z"/>
<path fill="#FFD481" opacity="1.000000" stroke="none" 
	d="
M100.531342,0.999999 
	C96.631943,6.019928 92.440720,11.208555 87.852348,16.018311 
	C81.720444,22.446077 75.359474,28.662268 68.949158,34.815430 
	C63.215195,40.319374 57.160458,45.490788 51.463940,51.031693 
	C43.407310,58.868244 35.593170,66.953445 27.593531,74.849434 
	C21.359409,81.002777 15.106912,87.146614 8.631054,93.040276 
	C6.730293,94.770164 4.038323,95.630676 1.354487,96.944817 
	C1.000000,84.645775 1.000000,72.291542 1.309927,59.797638 
	C2.070769,59.016388 2.748677,58.435833 2.939887,57.724461 
	C10.613864,29.174475 28.800064,11.066921 57.128513,2.936912 
	C57.876064,2.722371 58.381599,1.664557 59.000000,1.000000 
	C72.687561,1.000000 86.375122,1.000000 100.531342,0.999999 
z"/>
<path fill="#FFBB72" opacity="1.000000" stroke="none" 
	d="
M88.994987,169.914429 
	C87.231590,172.445251 85.785095,175.288803 83.649727,177.452530 
	C74.599075,186.623337 65.456909,195.710922 56.127842,204.597595 
	C48.576675,211.790665 40.576431,218.512543 33.031670,225.711990 
	C28.043287,230.472046 23.747469,235.964081 18.705215,240.659836 
	C13.304052,245.689850 7.391227,250.170425 1.350856,254.945404 
	C1.000000,239.312439 1.000000,223.624878 0.999999,207.468658 
	C4.550850,204.430435 8.408319,202.191208 11.597069,199.231506 
	C22.716558,188.910751 33.705479,178.443604 44.541611,167.825516 
	C50.675350,161.815216 56.306744,155.294998 62.365738,149.204758 
	C66.875549,144.671677 71.708565,140.460129 76.797752,136.515808 
	C77.217155,144.078720 77.242935,151.231186 77.254250,158.383698 
	C77.271683,169.406693 77.267509,169.405807 88.006248,169.784393 
	C88.336945,169.796051 88.665459,169.869690 88.994987,169.914429 
z"/>
<path fill="#FFB06B" opacity="1.000000" stroke="none" 
	d="
M337.531342,1.000001 
	C335.429871,4.698059 333.607178,9.491200 330.131958,11.863239 
	C323.174988,16.611822 318.065887,22.957531 312.270050,28.770895 
	C303.283691,37.784386 293.752716,46.253155 284.508148,55.011459 
	C276.752472,62.359203 269.018616,69.731865 261.380920,77.201721 
	C253.853745,84.563507 246.424866,92.027222 239.049042,99.540642 
	C238.080307,100.527466 237.681763,102.074066 236.542816,103.802521 
	C224.709930,104.192978 213.353378,104.142303 202.050934,103.739258 
	C202.755035,102.236130 203.196945,100.883308 204.087494,99.966103 
	C212.232651,91.577049 220.428665,83.236641 228.687256,74.959297 
	C229.839798,73.804138 231.495300,73.168015 232.767929,72.110970 
	C234.256500,70.874596 235.630264,69.487457 236.966232,68.082428 
	C240.372253,64.500359 243.558060,60.688969 247.157089,57.316288 
	C250.412476,54.265644 254.385559,51.962555 257.536499,48.822426 
	C265.237122,41.148216 272.591248,33.127728 280.187653,25.347031 
	C286.631073,18.747257 293.280975,12.348359 299.684448,5.710991 
	C300.841187,4.511994 301.247314,2.588835 302.000000,0.999997 
	C313.687561,1.000000 325.375122,1.000000 337.531342,1.000001 
z"/>
<path fill="#FF6D42" opacity="1.000000" stroke="none" 
	d="
M501.000000,315.533875 
	C494.580231,315.323578 494.467224,321.701660 491.344421,324.698090 
	C487.486420,328.399994 483.837006,332.319397 480.102234,336.149475 
	C475.478271,340.891388 470.991211,345.776459 466.201904,350.344849 
	C461.137787,355.175385 455.886230,359.822845 450.536896,364.337402 
	C444.404053,369.513123 438.714111,375.035736 434.526642,381.958099 
	C434.016815,382.800934 433.541687,383.937256 432.756256,384.299377 
	C423.150085,388.728058 417.570404,397.675262 409.994507,404.369354 
	C404.893555,408.876617 399.497772,413.051910 394.431366,417.595917 
	C391.940552,419.829895 389.957520,422.620300 387.638397,425.057739 
	C384.388275,428.473633 380.939453,431.703979 377.755310,435.178375 
	C372.919739,440.454712 368.283813,445.913910 363.459045,451.200439 
	C362.283295,452.488678 360.655334,453.352509 359.316437,454.505676 
	C354.640991,458.532379 349.848297,462.440521 345.392456,466.699524 
	C341.300812,470.610352 337.798370,475.143829 333.655640,478.993347 
	C327.742950,484.487549 321.420044,489.537964 315.411835,494.933319 
	C313.727875,496.445465 312.533691,498.503082 311.057434,500.655273 
	C305.977905,501.000000 300.955811,501.000000 295.466858,501.000000 
	C298.660156,496.375854 301.975098,491.417999 306.053680,487.198242 
	C314.091034,478.882782 322.439331,470.856873 330.869324,462.934967 
	C339.271637,455.039093 348.091949,447.585175 356.425781,439.620239 
	C362.655762,433.666077 368.280548,427.083221 374.407440,421.015198 
	C378.906525,416.559357 383.841644,412.547028 388.464142,408.210938 
	C390.592407,406.214508 392.344299,403.821686 394.425934,401.769989 
	C407.648071,388.737793 420.837585,375.670898 434.191193,362.774261 
	C444.789490,352.538544 455.724731,342.650848 466.284302,332.376251 
	C473.124878,325.720306 479.331635,318.406525 486.258240,311.847748 
	C490.513031,307.818848 495.589996,304.658203 500.648895,301.053833 
	C501.000000,305.689240 501.000000,310.378510 501.000000,315.533875 
z"/>
<path fill="#FF5D39" opacity="1.000000" stroke="none" 
	d="
M406.468628,501.000000 
	C406.850281,499.433960 407.414154,497.595795 408.599548,496.348145 
	C414.278259,490.371124 420.087982,484.516479 425.935059,478.702759 
	C427.692902,476.954926 429.811432,475.573914 431.609711,473.862030 
	C438.577881,467.228455 445.424713,460.466766 452.426453,453.869263 
	C462.629608,444.255157 473.017548,434.835663 483.144104,425.142426 
	C487.688477,420.792419 491.747559,415.938873 496.121216,411.404846 
	C497.341980,410.139252 498.898987,409.198029 500.650879,408.054016 
	C501.000000,419.354218 501.000000,430.708466 500.677185,442.220337 
	C498.171417,448.091095 496.511230,454.075470 493.712158,459.468842 
	C483.326355,479.480560 467.362305,492.913147 445.468811,499.036591 
	C444.535828,499.297546 443.818054,500.328003 443.000000,501.000000 
	C430.979095,501.000000 418.958221,501.000000 406.468628,501.000000 
z"/>
<path fill="#FF8953" opacity="1.000000" stroke="none" 
	d="
M211.005127,397.171906 
	C210.551910,398.037689 210.290115,399.108185 209.616409,399.738220 
	C201.177002,407.631226 192.716415,415.502655 184.182892,423.293762 
	C176.244049,430.541962 168.060043,437.528381 160.275177,444.936096 
	C155.435181,449.541595 151.292358,454.872162 146.557449,459.597565 
	C140.094635,466.047455 133.358765,472.223358 126.753418,478.530792 
	C120.666260,484.343445 114.545540,490.122864 108.565369,496.043945 
	C107.441917,497.156372 106.910934,498.867157 106.053276,500.650909 
	C96.645775,501.000000 87.291542,501.000000 77.471237,500.613037 
	C77.667068,496.111877 79.056129,492.691895 83.703506,491.462891 
	C85.147987,491.080902 86.437935,489.690338 87.541946,488.519470 
	C92.025558,483.764374 96.363113,478.871521 100.850204,474.119781 
	C102.993538,471.850037 105.317001,469.745422 107.619484,467.632050 
	C110.944229,464.580383 114.388672,461.656616 117.656441,458.546356 
	C119.645920,456.652710 121.439430,454.546082 123.248947,452.472260 
	C125.799011,449.549652 128.018524,446.283691 130.845428,443.668274 
	C138.288605,436.781891 146.242218,430.431793 153.480240,423.344910 
	C157.775375,419.139496 163.958740,416.627899 165.997925,410.217987 
	C166.142899,409.762268 167.233307,409.688141 167.668686,409.231293 
	C171.474365,405.237885 175.230927,401.197723 179.466873,397.108337 
	C190.289505,397.087433 200.647308,397.129669 211.005127,397.171906 
z"/>
<path fill="#FF9D60" opacity="1.000000" stroke="none" 
	d="
M0.999997,423.468384 
	C2.940499,422.160461 5.314338,421.772308 6.743498,420.400177 
	C11.848138,415.499420 16.539316,410.171234 21.563459,405.182495 
	C26.582048,400.199341 31.824013,395.441620 36.947350,390.563354 
	C44.266384,383.594299 51.583984,376.623566 58.870480,369.620575 
	C68.396072,360.465576 77.951614,351.340454 87.381012,342.087036 
	C96.247879,333.385651 104.913361,324.478546 113.817497,315.816193 
	C114.988770,314.676727 117.049255,314.451263 118.794037,314.373474 
	C117.743690,316.358398 116.501686,317.705994 115.465294,319.196503 
	C102.976685,337.157715 90.487213,355.118469 78.066673,373.126740 
	C72.608711,381.040161 67.307289,389.061554 61.694633,397.253693 
	C58.662636,400.741974 56.117615,404.268280 53.028572,407.226471 
	C46.164585,413.799683 38.901192,419.955811 32.037075,426.528900 
	C24.655884,433.597107 17.602345,441.006714 10.264719,448.121826 
	C8.909877,449.435547 6.883351,450.056580 4.995814,450.649506 
	C4.215356,448.490662 3.723612,446.626587 2.942547,444.892883 
	C2.596969,444.125885 1.665485,443.622864 0.999993,443.000000 
	C1.000000,436.645599 1.000000,430.291199 0.999997,423.468384 
z"/>
<path fill="#FFB26C" opacity="1.000000" stroke="none" 
	d="
M1.000000,286.467590 
	C5.263478,282.783691 9.758922,279.828461 13.738691,276.292786 
	C20.528749,270.260437 27.071442,263.941803 33.568375,257.590332 
	C37.356022,253.887466 40.726871,249.758667 44.508999,246.049667 
	C50.672890,240.005020 57.056103,234.184753 63.281399,228.201782 
	C73.412659,218.464890 83.539368,208.722290 93.576447,198.888657 
	C101.368484,191.254547 108.901138,183.353088 116.772057,175.802902 
	C123.446671,169.400284 130.595428,163.490692 137.244492,157.063080 
	C142.683563,151.805176 147.695190,146.105103 153.410431,140.190475 
	C158.949005,139.822968 163.973465,139.866043 168.997910,139.909134 
	C167.159515,142.541656 165.665512,145.522491 163.419678,147.742920 
	C155.991776,155.086777 148.222092,162.084000 140.743973,169.378677 
	C138.721542,171.351501 137.530945,174.186157 135.481857,176.120193 
	C133.124268,178.345413 129.977371,179.736923 127.631340,181.971436 
	C121.303627,187.998413 115.164215,194.227112 109.057701,200.480850 
	C104.981918,204.654907 101.269531,209.195969 97.061333,213.224777 
	C93.539848,216.596161 89.384521,219.299805 85.799774,222.612823 
	C83.568047,224.675385 82.083183,227.534210 79.900497,229.664032 
	C74.396835,235.034393 68.712425,240.220978 63.054657,245.431503 
	C56.598152,251.377625 49.936363,257.110748 43.664959,263.244324 
	C39.797607,267.026703 36.659229,271.545624 32.886875,275.436523 
	C29.351814,279.082703 25.434690,282.361603 21.646769,285.758728 
	C15.594825,291.186279 9.517975,296.586182 3.425961,301.968689 
	C2.947636,302.391296 2.268734,302.586884 1.341527,302.944000 
	C1.000000,297.645081 1.000000,292.290131 1.000000,286.467590 
z"/>
<path fill="#FFB66F" opacity="1.000000" stroke="none" 
	d="
M158.994919,104.095810 
	C163.956543,98.647224 168.780685,93.065102 173.912521,87.781830 
	C181.314606,80.161308 188.893707,72.710442 196.485031,65.276810 
	C202.389191,59.495323 208.399628,53.821262 214.413254,48.152969 
	C221.177872,41.776840 228.041550,35.505489 234.783707,29.105942 
	C241.503387,22.727734 248.184662,16.306387 254.761368,9.781581 
	C257.307404,7.255633 259.520172,4.393769 261.942383,1.342468 
	C268.354401,1.000000 274.708801,1.000000 281.477936,1.350163 
	C279.752045,4.574818 277.910522,7.745276 275.414459,10.268127 
	C268.021332,17.740625 260.298462,24.885860 252.850708,32.305809 
	C249.306671,35.836609 246.335800,39.959469 242.684464,43.362591 
	C233.200836,52.201546 223.451813,60.755142 213.888474,69.509766 
	C212.051865,71.191086 210.638336,73.325691 208.921234,75.149109 
	C207.390640,76.774460 205.675308,78.224152 204.103134,79.812393 
	C201.130142,82.815773 198.526917,86.299652 195.181076,88.793762 
	C189.588547,92.962608 184.679565,97.510384 181.533432,104.157990 
	C173.710739,104.181091 166.352829,104.138451 158.994919,104.095810 
z"/>
<path fill="#FFB46D" opacity="1.000000" stroke="none" 
	d="
M181.998215,104.092262 
	C184.679565,97.510384 189.588547,92.962608 195.181076,88.793762 
	C198.526917,86.299652 201.130142,82.815773 204.103134,79.812393 
	C205.675308,78.224152 207.390640,76.774460 208.921234,75.149109 
	C210.638336,73.325691 212.051865,71.191086 213.888474,69.509766 
	C223.451813,60.755142 233.200836,52.201546 242.684464,43.362591 
	C246.335800,39.959469 249.306671,35.836609 252.850708,32.305809 
	C260.298462,24.885860 268.021332,17.740625 275.414459,10.268127 
	C277.910522,7.745276 279.752045,4.574818 281.946350,1.350163 
	C288.354401,1.000000 294.708801,1.000000 301.531616,0.999997 
	C301.247314,2.588835 300.841187,4.511994 299.684448,5.710991 
	C293.280975,12.348359 286.631073,18.747257 280.187653,25.347031 
	C272.591248,33.127728 265.237122,41.148216 257.536499,48.822426 
	C254.385559,51.962555 250.412476,54.265644 247.157089,57.316288 
	C243.558060,60.688969 240.372253,64.500359 236.966232,68.082428 
	C235.630264,69.487457 234.256500,70.874596 232.767929,72.110970 
	C231.495300,73.168015 229.839798,73.804138 228.687256,74.959297 
	C220.428665,83.236641 212.232651,91.577049 204.087494,99.966103 
	C203.196945,100.883308 202.755035,102.236130 201.586777,103.807602 
	C194.711746,104.182953 188.354980,104.137611 181.998215,104.092262 
z"/>
<path fill="#FF8F57" opacity="1.000000" stroke="none" 
	d="
M501.000000,59.000008 
	C501.000000,64.354927 501.000000,69.709862 500.637512,75.544693 
	C494.157410,81.398857 487.793610,86.521210 481.979065,92.205444 
	C472.885162,101.095512 464.177704,110.380417 455.242188,119.434547 
	C454.761841,119.921295 453.687561,119.821953 452.799011,119.536812 
	C452.688904,115.423759 452.555145,111.765182 452.687408,108.116241 
	C452.788055,105.339737 451.730591,104.266830 448.922729,104.301254 
	C443.281525,104.370415 437.637207,104.186623 432.007874,103.733360 
	C434.916077,99.869705 437.534546,96.099075 440.751160,92.936890 
	C458.122620,75.859505 475.642273,58.932899 493.431702,42.121162 
	C495.510193,47.409748 497.222839,52.547962 499.084717,57.631531 
	C499.307556,58.239906 500.341827,58.551083 501.000000,59.000008 
z"/>
<path fill="#FF8B55" opacity="1.000000" stroke="none" 
	d="
M179.002075,397.171448 
	C175.230927,401.197723 171.474365,405.237885 167.668686,409.231293 
	C167.233307,409.688141 166.142899,409.762268 165.997925,410.217987 
	C163.958740,416.627899 157.775375,419.139496 153.480240,423.344910 
	C146.242218,430.431793 138.288605,436.781891 130.845428,443.668274 
	C128.018524,446.283691 125.799011,449.549652 123.248947,452.472260 
	C121.439430,454.546082 119.645920,456.652710 117.656441,458.546356 
	C114.388672,461.656616 110.944229,464.580383 107.619484,467.632050 
	C105.317001,469.745422 102.993538,471.850037 100.850204,474.119781 
	C96.363113,478.871521 92.025558,483.764374 87.541946,488.519470 
	C86.437935,489.690338 85.147987,491.080902 83.703506,491.462891 
	C79.056129,492.691895 77.667068,496.111877 77.002579,500.613037 
	C71.311958,501.000000 65.623917,501.000000 59.792423,500.766968 
	C59.416595,500.058594 59.184223,499.583282 59.124229,498.809174 
	C66.585693,491.560455 73.884712,484.620880 81.160667,477.657257 
	C86.765007,472.293427 92.314407,466.872009 97.935883,461.526337 
	C103.736526,456.010315 109.690475,450.651459 115.375000,445.019623 
	C117.326416,443.086273 118.356743,440.205902 120.349426,438.335052 
	C124.972725,433.994476 130.075165,430.165344 134.714050,425.840027 
	C143.775772,417.390900 152.673111,408.764740 161.570511,400.141693 
	C162.311737,399.423279 162.538406,398.173950 163.467041,397.109161 
	C168.953995,397.088531 173.978027,397.129974 179.002075,397.171448 
z"/>
<path fill="#FF8A54" opacity="1.000000" stroke="none" 
	d="
M452.889771,119.995422 
	C453.687561,119.821953 454.761841,119.921295 455.242188,119.434547 
	C464.177704,110.380417 472.885162,101.095512 481.979065,92.205444 
	C487.793610,86.521210 494.157410,81.398857 500.637512,76.012299 
	C501.000000,86.687561 501.000000,97.375122 500.658020,108.588837 
	C493.153687,115.842308 485.983063,122.560883 478.832123,129.300354 
	C474.893829,133.012009 470.971863,136.741364 467.073181,140.494583 
	C462.957306,144.456985 458.896240,148.476593 454.754791,152.411804 
	C454.330811,152.814667 453.520782,152.811234 452.796997,152.535370 
	C452.765991,141.381409 452.827881,130.688416 452.889771,119.995422 
z"/>
<path fill="#FF8551" opacity="1.000000" stroke="none" 
	d="
M452.889893,152.996338 
	C453.520782,152.811234 454.330811,152.814667 454.754791,152.411804 
	C458.896240,148.476593 462.957306,144.456985 467.073181,140.494583 
	C470.971863,136.741364 474.893829,133.012009 478.832123,129.300354 
	C485.983063,122.560883 493.153687,115.842308 500.658020,109.057495 
	C501.000000,119.354225 501.000000,129.708450 501.000000,140.531342 
	C495.640930,145.751205 490.221985,150.436935 484.937286,155.269440 
	C477.549408,162.025223 470.237030,168.864319 462.942474,175.721054 
	C459.761658,178.710938 456.705109,181.833023 453.146118,184.485107 
	C452.763397,173.715530 452.826630,163.355942 452.889893,152.996338 
z"/>
<path fill="#000000" opacity="1.000000" stroke="none" 
	d="
M58.951847,499.107971 
	C59.184223,499.583282 59.416595,500.058594 59.324486,500.766968 
	C39.739868,501.000000 20.479736,501.000000 1.000000,501.000000 
	C1.000000,481.979675 1.000000,462.958496 0.999993,443.468689 
	C1.665485,443.622864 2.596969,444.125885 2.942547,444.892883 
	C3.723612,446.626587 4.215356,448.490662 4.927602,451.027039 
	C8.734138,458.311707 12.437856,464.871002 16.101645,471.799011 
	C22.403477,478.876526 28.167587,486.257935 37.100670,490.436768 
	C44.479134,493.541656 51.715488,496.324799 58.951847,499.107971 
z"/>
<path fill="#000000" opacity="1.000000" stroke="none" 
	d="
M443.468658,501.000000 
	C443.818054,500.328003 444.535828,499.297546 445.468811,499.036591 
	C467.362305,492.913147 483.326355,479.480560 493.712158,459.468842 
	C496.511230,454.075470 498.171417,448.091095 500.677185,442.688995 
	C501.000000,462.260132 501.000000,481.520264 501.000000,501.000000 
	C481.979675,501.000000 462.958496,501.000000 443.468658,501.000000 
z"/>
<path fill="#000000" opacity="1.000000" stroke="none" 
	d="
M58.531342,1.000000 
	C58.381599,1.664557 57.876064,2.722371 57.128513,2.936912 
	C28.800064,11.066921 10.613864,29.174475 2.939887,57.724461 
	C2.748677,58.435833 2.070769,59.016388 1.309927,59.328979 
	C1.000000,39.739868 1.000000,20.479736 1.000000,1.000000 
	C20.020330,1.000000 39.041508,1.000000 58.531342,1.000000 
z"/>
<path fill="#000000" opacity="1.000000" stroke="none" 
	d="
M501.000000,58.531349 
	C500.341827,58.551083 499.307556,58.239906 499.084717,57.631531 
	C497.222839,52.547962 495.510193,47.409748 493.377380,41.759930 
	C488.638153,32.483978 482.570557,25.105150 474.914093,18.580086 
	C473.250946,17.080879 471.774048,15.823221 470.188324,14.722239 
	C461.925690,8.985294 453.138000,4.430312 443.043030,2.885807 
	C442.811646,2.410784 442.580261,1.935767 442.674438,1.230375 
	C462.260132,1.000000 481.520264,1.000000 501.000000,1.000000 
	C501.000000,20.020330 501.000000,39.041508 501.000000,58.531349 
z"/>
<path fill="#FFFDFC" opacity="1.000000" stroke="none" 
	d="
M452.796997,152.535370 
	C452.826630,163.355942 452.763397,173.715530 452.794739,184.535767 
	C452.149200,185.676880 451.409088,186.357346 449.871887,187.039093 
	C438.384430,187.084076 427.694122,187.127792 416.538940,187.105621 
	C404.384552,187.083603 392.695038,187.127487 380.540558,187.105194 
	C355.797638,187.039001 331.519684,187.039001 307.358459,187.039001 
	C307.040771,188.098129 306.780365,188.560608 306.780823,189.022827 
	C306.803375,211.680054 306.848358,234.337265 306.805084,257.457275 
	C306.775848,269.945374 306.832367,281.970673 306.799316,294.458069 
	C306.769501,305.947021 306.829315,316.973907 306.889099,328.000763 
	C306.825195,335.359467 306.761261,342.718140 306.792908,350.537415 
	C306.820953,357.690857 306.753448,364.383667 306.784332,371.536377 
	C306.882751,380.110962 306.882751,388.225647 306.882751,397.048492 
	C293.749023,397.048492 281.343018,397.048492 268.472382,397.109863 
	C249.316696,397.130157 230.625656,397.089081 211.469864,397.109955 
	C200.647308,397.129669 190.289505,397.087433 179.466888,397.108307 
	C173.978027,397.129974 168.953995,397.088531 163.002014,397.044281 
	C151.384262,397.084961 140.694427,397.128448 129.539627,397.106567 
	C117.383812,397.084747 105.692963,397.128265 93.537292,397.107452 
	C82.693245,397.040070 72.314026,397.036987 61.934795,397.033936 
	C67.307289,389.061554 72.608711,381.040161 78.066673,373.126740 
	C90.487213,355.118469 102.976685,337.157715 115.465294,319.196503 
	C116.501686,317.705994 117.743690,316.358398 119.008224,314.640045 
	C129.615250,299.600861 140.144196,284.894348 150.582977,270.124115 
	C163.394806,251.996109 176.131226,233.814804 189.015137,215.329529 
	C197.864655,202.517929 206.577850,190.018234 215.340073,177.553040 
	C223.726151,165.622971 232.164825,153.729874 240.566727,141.810898 
	C240.741669,141.562759 240.750488,141.197464 241.147842,139.767227 
	C236.886963,139.767227 232.901276,139.767227 228.455948,139.837402 
	C216.639481,139.862122 205.282654,139.816666 193.460754,139.838989 
	C185.306473,139.863525 177.617279,139.820282 169.462982,139.843079 
	C163.973465,139.866043 158.949005,139.822968 153.461029,139.844040 
	C140.856430,139.858002 128.714432,139.876770 116.574944,139.711349 
	C113.349098,139.667389 112.681343,141.194366 112.719101,143.987579 
	C112.815781,151.139786 112.620392,158.296875 112.775909,165.446930 
	C112.847084,168.718842 111.605835,169.852646 108.391304,169.774857 
	C102.240227,169.625992 96.082062,169.770660 89.460907,169.853973 
	C88.665459,169.869690 88.336945,169.796051 88.006248,169.784393 
	C77.267509,169.405807 77.271683,169.406693 77.254250,158.383698 
	C77.242935,151.231186 77.217155,144.078720 77.142960,136.459503 
	C77.137978,127.007294 77.331352,118.019234 77.169174,109.037590 
	C77.101715,105.301987 78.435150,104.097656 82.100067,104.173965 
	C91.084206,104.361053 100.075180,104.220345 109.528168,104.149765 
	C126.017082,104.132957 142.041214,104.177910 158.530136,104.159340 
	C166.352829,104.138451 173.710739,104.181091 181.533432,104.157990 
	C188.354980,104.137611 194.711746,104.182953 201.532654,104.159958 
	C213.353378,104.142303 224.709930,104.192978 236.530182,104.171364 
	C254.351837,104.149353 271.709808,104.199631 289.530731,104.171898 
	C307.351257,104.151062 324.708832,104.208237 342.993286,104.256676 
	C359.610535,104.200813 375.300934,104.153671 391.455322,104.186478 
	C405.277588,104.213356 418.635864,104.160278 431.994171,104.107208 
	C437.637207,104.186623 443.281525,104.370415 448.922729,104.301254 
	C451.730591,104.266830 452.788055,105.339737 452.687408,108.116241 
	C452.555145,111.765182 452.688904,115.423759 452.799011,119.536804 
	C452.827881,130.688416 452.765991,141.381409 452.796997,152.535370 
M260.734619,232.924118 
	C260.787170,245.948654 260.839691,258.973175 260.723450,272.923279 
	C260.778900,286.614288 260.834381,300.305328 260.717712,314.921570 
	C260.717712,330.462494 260.717712,346.003418 260.717712,361.619324 
	C264.589630,361.619324 267.802155,361.619324 271.111664,361.619324 
	C271.111664,343.157196 271.111664,325.073792 271.296997,306.069427 
	C271.234772,292.376709 271.172577,278.684021 271.287567,264.069092 
	C271.227997,251.376251 271.168427,238.683411 271.283203,225.067230 
	C271.221985,211.375626 271.160767,197.684021 271.266357,183.067749 
	C271.266357,172.820740 271.266357,162.573715 271.266357,151.829193 
	C284.418549,151.829193 296.713776,151.829193 309.938660,151.946518 
	C326.962646,151.907288 343.986664,151.868057 361.939941,151.947205 
	C380.304535,151.947205 398.669159,151.947205 417.351166,151.947205 
	C417.351166,148.636948 417.217072,146.145340 417.385559,143.674362 
	C417.590240,140.672501 416.437866,139.569290 413.380951,139.607819 
	C398.586212,139.794342 383.789429,139.815216 368.070343,139.716110 
	C350.378479,139.778564 332.686646,139.841003 314.070068,139.734940 
	C297.795776,139.725128 281.521240,139.755692 265.247375,139.668213 
	C262.329956,139.652542 260.603363,140.106400 260.650604,143.679962 
	C260.854736,159.117111 260.838867,174.557159 260.748474,190.923813 
	C260.796844,204.615005 260.845184,218.306213 260.734619,232.924118 
M225.287155,307.071655 
	C225.227676,295.378998 225.168198,283.686371 225.279465,271.069855 
	C225.279465,256.379395 225.279465,241.688934 225.279465,225.575607 
	C223.522797,227.833344 222.696671,228.811111 221.961090,229.852829 
	C204.105133,255.140579 186.227661,280.413208 168.421661,305.736115 
	C156.459976,322.747498 144.602005,339.831848 132.202637,357.262695 
	C131.653366,358.134033 131.104095,359.005341 130.122894,360.264771 
	C131.082962,360.786652 132.043030,361.308533 133.933151,361.949738 
	C145.624329,361.909180 157.315491,361.868652 169.936142,361.949890 
	C188.294647,361.949890 206.653152,361.949890 225.107559,361.949890 
	C225.107559,343.483734 225.107559,325.739197 225.287155,307.071655 
z"/>
<path fill="#FF9B5E" opacity="1.000000" stroke="none" 
	d="
M390.991333,104.106529 
	C375.300934,104.153671 359.610535,104.200813 343.455444,104.172905 
	C346.859100,99.481255 350.400391,94.534302 354.662170,90.315117 
	C364.252258,80.820885 374.202515,71.690605 384.000214,62.405880 
	C391.158173,55.622658 398.347870,48.872246 405.449768,42.030716 
	C416.509552,31.376408 427.552582,20.703581 438.485260,9.919538 
	C440.297028,8.132404 441.511047,5.739303 443.022156,3.256017 
	C453.138000,4.430312 461.925690,8.985294 470.188324,14.722239 
	C471.774048,15.823221 473.250946,17.080879 474.764069,18.900904 
	C473.706635,21.214874 472.953033,23.195036 471.572845,24.524853 
	C462.372162,33.389633 452.842621,41.920895 443.821228,50.960987 
	C438.583191,56.209866 434.718109,62.861816 427.561127,66.058701 
	C426.856873,66.373268 426.265961,67.135033 425.826782,67.820206 
	C420.405609,76.278374 411.708588,81.335831 404.800415,88.232849 
	C399.849548,93.175674 395.570251,98.791145 390.991333,104.106529 
z"/>
<path fill="#FF8551" opacity="1.000000" stroke="none" 
	d="
M417.003784,187.171509 
	C427.694122,187.127792 438.384430,187.084076 449.539642,187.106384 
	C449.848602,187.981903 449.977539,189.081757 449.493408,189.556808 
	C443.491760,195.445877 437.372925,201.215332 431.344543,207.077545 
	C428.299072,210.039078 425.447845,213.201355 422.381653,216.140244 
	C416.553864,221.726059 410.575623,227.155334 404.765930,232.759567 
	C393.034058,244.076675 381.383240,255.477814 369.679901,266.824646 
	C359.606567,276.591187 349.515198,286.339203 339.416077,296.079132 
	C330.864075,304.326935 322.250366,312.511322 313.751526,320.813385 
	C311.522766,322.990540 309.619263,325.500641 307.227753,327.929321 
	C306.829315,316.973907 306.769501,305.947021 307.170349,294.448120 
	C312.818939,289.712341 318.246185,285.704803 323.144012,281.130463 
	C332.776703,272.133942 342.095856,262.802368 351.584625,253.650726 
	C355.666412,249.713974 359.992126,246.021408 363.950500,241.967468 
	C370.229706,235.536697 376.134918,228.737228 382.484955,222.380051 
	C392.501892,212.351837 402.789612,202.594574 412.876282,192.635086 
	C414.483459,191.048172 415.639282,189.004181 417.003784,187.171509 
z"/>
<path fill="#FF995D" opacity="1.000000" stroke="none" 
	d="
M61.694641,397.253662 
	C72.314026,397.036987 82.693245,397.040070 93.472549,397.434387 
	C88.408173,403.441925 83.015839,409.130737 77.459007,414.654114 
	C71.877296,420.202240 66.131294,425.585052 60.458469,431.041565 
	C59.380844,432.078064 58.316639,433.128632 57.232651,434.158356 
	C51.611458,439.498352 46.058212,444.913239 40.323620,450.128662 
	C38.241138,452.022552 35.435436,453.153046 33.472328,455.138641 
	C30.829683,457.811523 28.975307,461.286713 26.245674,463.844513 
	C23.190678,466.707184 19.535570,468.929413 16.141582,471.430298 
	C12.437856,464.871002 8.734138,458.311707 5.098633,451.374878 
	C6.883351,450.056580 8.909877,449.435547 10.264719,448.121826 
	C17.602345,441.006714 24.655884,433.597107 32.037075,426.528900 
	C38.901192,419.955811 46.164585,413.799683 53.028572,407.226471 
	C56.117615,404.268280 58.662636,400.741974 61.694641,397.253662 
z"/>
<path fill="#FF955A" opacity="1.000000" stroke="none" 
	d="
M391.455322,104.186478 
	C395.570251,98.791145 399.849548,93.175674 404.800415,88.232849 
	C411.708588,81.335831 420.405609,76.278374 425.826782,67.820206 
	C426.265961,67.135033 426.856873,66.373268 427.561127,66.058701 
	C434.718109,62.861816 438.583191,56.209866 443.821228,50.960987 
	C452.842621,41.920895 462.372162,33.389633 471.572845,24.524853 
	C472.953033,23.195036 473.706635,21.214874 474.900085,19.214737 
	C482.570557,25.105150 488.638153,32.483978 493.056549,41.593079 
	C475.642273,58.932899 458.122620,75.859505 440.751160,92.936890 
	C437.534546,96.099075 434.916077,99.869705 432.007874,103.733360 
	C418.635864,104.160278 405.277588,104.213356 391.455322,104.186478 
z"/>
<path fill="#FF8E57" opacity="1.000000" stroke="none" 
	d="
M130.004593,397.171936 
	C140.694427,397.128448 151.384262,397.084961 162.539108,397.106384 
	C162.538406,398.173950 162.311737,399.423279 161.570511,400.141693 
	C152.673111,408.764740 143.775772,417.390900 134.714050,425.840027 
	C130.075165,430.165344 124.972725,433.994476 120.349426,438.335052 
	C118.356743,440.205902 117.326416,443.086273 115.375000,445.019623 
	C109.690475,450.651459 103.736526,456.010315 97.935883,461.526337 
	C92.314407,466.872009 86.765007,472.293427 81.160667,477.657257 
	C73.884712,484.620880 66.585693,491.560455 59.124229,498.809174 
	C51.715488,496.324799 44.479134,493.541656 37.162148,490.084747 
	C40.739853,485.419708 44.234501,481.262024 48.089348,477.470551 
	C57.137016,468.571564 66.399406,459.891235 75.481216,451.026428 
	C78.180527,448.391602 80.360664,445.209442 83.142365,442.677643 
	C88.836464,437.495087 95.328072,433.083649 100.466537,427.424255 
	C105.999084,421.330841 111.491257,415.323578 117.746719,409.934296 
	C122.195557,406.101349 125.943710,401.455170 130.004593,397.171936 
z"/>
<path fill="#FF945A" opacity="1.000000" stroke="none" 
	d="
M129.539627,397.106567 
	C125.943710,401.455170 122.195557,406.101349 117.746719,409.934296 
	C111.491257,415.323578 105.999084,421.330841 100.466537,427.424255 
	C95.328072,433.083649 88.836464,437.495087 83.142365,442.677643 
	C80.360664,445.209442 78.180527,448.391602 75.481216,451.026428 
	C66.399406,459.891235 57.137016,468.571564 48.089348,477.470551 
	C44.234501,481.262024 40.739853,485.419708 37.020042,489.763031 
	C28.167587,486.257935 22.403477,478.876526 16.101654,471.799011 
	C19.535570,468.929413 23.190678,466.707184 26.245674,463.844513 
	C28.975307,461.286713 30.829683,457.811523 33.472328,455.138641 
	C35.435436,453.153046 38.241138,452.022552 40.323620,450.128662 
	C46.058212,444.913239 51.611458,439.498352 57.232651,434.158356 
	C58.316639,433.128632 59.380844,432.078064 60.458469,431.041565 
	C66.131294,425.585052 71.877296,420.202240 77.459007,414.654114 
	C83.015839,409.130737 88.408173,403.441925 93.937370,397.498718 
	C105.692963,397.128265 117.383812,397.084747 129.539627,397.106567 
z"/>
<path fill="#FF8A54" opacity="1.000000" stroke="none" 
	d="
M416.538940,187.105606 
	C415.639282,189.004181 414.483459,191.048172 412.876282,192.635086 
	C402.789612,202.594574 392.501892,212.351837 382.484955,222.380051 
	C376.134918,228.737228 370.229706,235.536697 363.950500,241.967468 
	C359.992126,246.021408 355.666412,249.713974 351.584625,253.650726 
	C342.095856,262.802368 332.776703,272.133942 323.144012,281.130463 
	C318.246185,285.704803 312.818939,289.712341 307.259949,293.986023 
	C306.832367,281.970673 306.775848,269.945374 307.178314,257.447083 
	C310.253326,255.320816 313.212250,254.030823 315.421112,251.946152 
	C322.047455,245.692352 328.260132,239.001419 334.858429,232.716431 
	C343.622620,224.368362 352.640228,216.286880 361.456635,207.992691 
	C363.933258,205.662750 365.625397,201.958176 368.480865,200.682083 
	C374.795929,197.859909 377.232697,192.016022 381.005493,187.171371 
	C392.695038,187.127487 404.384552,187.083603 416.538940,187.105606 
z"/>
<path fill="#FF9057" opacity="1.000000" stroke="none" 
	d="
M380.540558,187.105194 
	C377.232697,192.016022 374.795929,197.859909 368.480865,200.682083 
	C365.625397,201.958176 363.933258,205.662750 361.456635,207.992691 
	C352.640228,216.286880 343.622620,224.368362 334.858429,232.716431 
	C328.260132,239.001419 322.047455,245.692352 315.421112,251.946152 
	C313.212250,254.030823 310.253326,255.320816 307.264069,256.984283 
	C306.848358,234.337265 306.803375,211.680054 306.780823,189.022827 
	C306.780365,188.560608 307.040771,188.098129 307.358459,187.039001 
	C331.519684,187.039001 355.797638,187.039001 380.540558,187.105194 
z"/>
<path fill="#FF945A" opacity="1.000000" stroke="none" 
	d="
M130.554810,359.876709 
	C131.104095,359.005341 131.653366,358.134033 132.840286,357.090210 
	C134.628265,356.167542 135.961227,355.593140 136.889221,354.628967 
	C138.591385,352.860443 139.865143,350.658478 141.651291,348.995728 
	C148.411865,342.702271 155.353653,336.603760 162.132095,330.329102 
	C165.911087,326.830933 169.426208,323.048340 173.192001,319.535187 
	C182.685791,310.678314 192.412750,302.065063 201.734467,293.032410 
	C207.503265,287.442474 212.549713,281.111145 218.247803,275.441711 
	C219.971725,273.726471 222.791122,273.112274 225.108704,271.993713 
	C225.168198,283.686371 225.227676,295.378998 224.807983,307.536652 
	C221.774384,309.846680 218.987289,311.443268 216.705627,313.579651 
	C206.700256,322.948029 196.804932,332.435181 186.952148,341.964508 
	C184.173157,344.652252 181.643250,347.601746 179.054337,350.480835 
	C175.676376,354.237427 172.353333,358.043396 169.006668,361.828125 
	C157.315491,361.868652 145.624329,361.909180 133.361389,361.570007 
	C132.044693,360.752441 131.299744,360.314575 130.554810,359.876709 
z"/>
<path fill="#FF995E" opacity="1.000000" stroke="none" 
	d="
M225.194092,271.531799 
	C222.791122,273.112274 219.971725,273.726471 218.247803,275.441711 
	C212.549713,281.111145 207.503265,287.442474 201.734467,293.032410 
	C192.412750,302.065063 182.685791,310.678314 173.192001,319.535187 
	C169.426208,323.048340 165.911087,326.830933 162.132095,330.329102 
	C155.353653,336.603760 148.411865,342.702271 141.651291,348.995728 
	C139.865143,350.658478 138.591385,352.860443 136.889221,354.628967 
	C135.961227,355.593140 134.628265,356.167542 133.087769,356.900635 
	C144.602005,339.831848 156.459976,322.747498 168.421661,305.736115 
	C186.227661,280.413208 204.105133,255.140579 221.961090,229.852829 
	C222.696671,228.811111 223.522797,227.833344 225.279465,225.575607 
	C225.279465,241.688934 225.279465,256.379395 225.194092,271.531799 
z"/>
<path fill="#FF8E57" opacity="1.000000" stroke="none" 
	d="
M169.471405,361.889008 
	C172.353333,358.043396 175.676376,354.237427 179.054337,350.480835 
	C181.643250,347.601746 184.173157,344.652252 186.952148,341.964508 
	C196.804932,332.435181 206.700256,322.948029 216.705627,313.579651 
	C218.987289,311.443268 221.774384,309.846680 224.718201,307.998169 
	C225.107559,325.739197 225.107559,343.483734 225.107559,361.949890 
	C206.653152,361.949890 188.294647,361.949890 169.471405,361.889008 
z"/>
<path fill="#FF9F61" opacity="1.000000" stroke="none" 
	d="
M309.009033,151.829193 
	C296.713776,151.829193 284.418549,151.829193 271.266357,151.829193 
	C271.266357,162.573715 271.266357,172.820740 270.833374,183.583389 
	C267.234619,186.064743 264.068848,188.030441 260.903076,189.996155 
	C260.838867,174.557159 260.854736,159.117111 260.650604,143.679962 
	C260.603363,140.106400 262.329956,139.652542 265.247375,139.668213 
	C281.521240,139.755692 297.795776,139.725128 314.531738,140.208191 
	C312.998596,144.397369 311.003815,148.113281 309.009033,151.829193 
z"/>
<path fill="#FF995D" opacity="1.000000" stroke="none" 
	d="
M309.473877,151.887863 
	C311.003815,148.113281 312.998596,144.397369 314.994080,140.292450 
	C332.686646,139.841003 350.378479,139.778564 368.530334,140.190552 
	C366.330414,144.386261 363.670532,148.107544 361.010651,151.828812 
	C343.986664,151.868057 326.962646,151.907288 309.473877,151.887863 
z"/>
<path fill="#FF9158" opacity="1.000000" stroke="none" 
	d="
M361.475281,151.888000 
	C363.670532,148.107544 366.330414,144.386261 368.991821,140.279907 
	C383.789429,139.815216 398.586212,139.794342 413.380951,139.607819 
	C416.437866,139.569290 417.590240,140.672501 417.385559,143.674362 
	C417.217072,146.145340 417.351166,148.636948 417.351166,151.947205 
	C398.669159,151.947205 380.304535,151.947205 361.475281,151.888000 
z"/>
<path fill="#FF8852" opacity="1.000000" stroke="none" 
	d="
M271.111664,306.990356 
	C271.111664,325.073792 271.111664,343.157196 271.111664,361.619324 
	C267.802155,361.619324 264.589630,361.619324 260.717712,361.619324 
	C260.717712,346.003418 260.717712,330.462494 261.152802,314.409424 
	C264.762482,311.594971 267.937073,309.292664 271.111664,306.990356 
z"/>
<path fill="#FF8E57" opacity="1.000000" stroke="none" 
	d="
M271.204346,306.529907 
	C267.937073,309.292664 264.762482,311.594971 261.238861,313.946808 
	C260.834381,300.305328 260.778900,286.614288 261.158569,272.408936 
	C264.765900,269.593475 267.938141,267.292389 271.110382,264.991302 
	C271.172577,278.684021 271.234772,292.376709 271.204346,306.529907 
z"/>
<path fill="#FF995E" opacity="1.000000" stroke="none" 
	d="
M260.825775,190.459991 
	C264.068848,188.030441 267.234619,186.064743 270.750000,184.045715 
	C271.160767,197.684021 271.221985,211.375626 270.837769,225.580200 
	C267.226074,228.061234 264.059784,230.029312 260.893524,231.997406 
	C260.845184,218.306213 260.796844,204.615005 260.825775,190.459991 
z"/>
<path fill="#FF945A" opacity="1.000000" stroke="none" 
	d="
M260.814087,232.460754 
	C264.059784,230.029312 267.226074,228.061234 270.750610,226.041870 
	C271.168427,238.683411 271.227997,251.376251 271.198975,264.530212 
	C267.938141,267.292389 264.765900,269.593475 261.242920,271.946136 
	C260.839691,258.973175 260.787170,245.948654 260.814087,232.460754 
z"/>
<path fill="#FF995E" opacity="1.000000" stroke="none" 
	d="
M130.338837,360.070740 
	C131.299744,360.314575 132.044693,360.752441 132.896362,361.510376 
	C132.043030,361.308533 131.082962,360.786652 130.338837,360.070740 
z"/>
</svg>